PathFileType	4	(X/Y/Z)	/home/abdul/Desktop/myosuite/custom_workspace/IK/output/S16_12_3.trc
DataRate	CameraRate	NumFrames	NumMarkers	Units	OrigDataRate	OrigDataStartFrame	OrigNumFrames
200.0	200.0	33	3	mm	200.0	306	1220
Frame#	Time	V_Shoulder			V_Elbow			V_Wrist		
		X1	Y1	Z1	X2	Y2	Z2	X3	Y3	Z3

306	1.525	-108.08932001321192	545.7046661499086	300.9744880650333	-254.22837938137675	393.4501508032894	51.276295223925665	-127.2657282379931	180.39206481169344	45.67674652190209
307	1.53	-107.94838107257225	545.4037428202699	300.95045650119613	-254.1210869775771	393.26979665677175	51.26176808127651	-126.95340154404035	180.19431474346084	45.279713437042574
308	1.535	-107.81122258317329	545.1073867164731	300.92572814184115	-254.01444447611522	393.08916963933086	51.246762418030585	-126.64266530806353	179.99497430341432	44.8783966368811
309	1.54	-107.67784168505806	544.8155612795154	300.9003286316873	-253.90851991799408	392.90837501011356	51.23124897541308	-126.33348184053233	179.79414764319566	44.473188174947204
310	1.545	-107.54823427379608	544.5282358430204	300.87428664536236	-253.80339059040614	392.72753411632016	51.21519755884474	-126.02581811300199	179.5919695424828	44.06453251515804
311	1.55	-107.42239507480032	544.2453858579887	300.8476338825856	-253.69914269157505	392.546784126763	51.19857709528297	-125.71964525346775	179.3886052314985	43.652927201955706
312	1.555	-107.30031771785622	543.9669930998588	300.82040505407804	-253.59587096465145	392.36627773026214	51.18135569693155	-125.41493805266707	179.18425016862926	43.23892336708377
313	1.56	-107.18199481148993	543.6930458573852	300.79263785836116	-253.493678301589	392.1861827985549	51.16350073221687	-125.11167448357475	178.97912977238605	42.8231260685876
314	1.565	-107.06741801680512	543.4235391028811	300.7643729496344	-253.3926753179912	392.0066820134497	51.14497890489077	-124.80983523621684	178.77349910690805	42.40619445806328
315	1.57	-106.95657812042005	543.1584746434256	300.73565389693755	-253.2929798999827	391.8279724580184	51.12575634207435	-124.50940326980297	178.56764252018934	41.98884177264182
316	1.575	-106.8494651061418	542.8978612526724	300.70652713483565	-253.19471672422262	391.65026517168894	51.10579869200443	-124.2103633840446	178.36187323420114	41.57183514867599
317	1.58	-106.74606822502113	542.6417147829524	300.677041905879	-253.09801675224097	391.4737846691738	51.08507123218488	-123.91270181138867	178.15653288608615	41.15599525459811
318	1.585	-106.64637606343844	542.3900582574074	300.6472501951138	-253.00301670034258	391.2987684232578	51.06353898857829	-123.6164058317535	177.95199101962118	40.742195740936054
319	1.59	-106.55037660888233	542.1429219419384	300.61720665693696	-252.90985848638718	391.1254663115518	51.04116686640077	-123.32146341120719	177.7486445261774	40.331362506012084
320	1.595	-106.45805731309152	541.9003433968061	300.5869685346051	-252.818688654817	390.95414002742365	51.01791979300356	-123.0278628658792	177.54691703445445	39.92447277640331
321	1.6	-106.36940515224434	541.6623675077667	300.55659557272406	-252.72965778136756	390.7850624554145	50.99376287324019	-122.73559255224205	177.34725824832924	39.52255400181336
322	1.605	-106.28440668389369	541.4290464966772	300.52614992305865	-252.6429198589594	390.61851701156183	50.96866155762802	-122.4446405847469	177.15014323223824	39.12668256458999
323	1.61	-106.20304810036042	541.2004399115555	300.49569604401586	-252.55863166633182	390.45479694916673	50.942581823517	-122.15499458163984	176.95607164360666	38.737982304723275
324	1.615	-106.12531527831477	540.9766145961275	300.46530059416494	-252.4769521210409	390.29420463066515	50.91549036937958	-121.86664143962987	176.76556691194878	38.35762286177066
325	1.62	-106.05119382429298	540.7576446389476	300.43503232016656	-252.39804161850526	390.137050766391	50.8873548222314	-121.57956713792271	176.57917536438845	37.98681783577841
326	1.625	-105.98066911591525	540.5436113022229	300.4049619394939	-252.32206135884294	389.9836536211491	50.858143958085556	-121.29375657197934	176.39746529749186	37.626822769901324
327	1.63	-105.91372633859096	540.3346029305261	300.3751620183307	-252.24917266330164	389.83433818965807	50.827827935233394	-121.00919341720393	176.2210259954598	37.278932958062505
328	1.635	-105.85035051751862	540.1307148396271	300.3457068450411	-252.17953628213982	389.6894353420595	50.796378540032514	-120.72586002261261	176.0504666948993	36.94448108164078
329	1.64	-105.79052654480859	539.9320491857239	300.3166722996061	-252.11331169587186	389.54928094083874	50.76376944476911	-120.44373733438596	175.88641549657882	36.62483467982214
330	1.645	-105.73423920158098	539.7387148153965	300.28813571942396	-252.05065641184237	389.4142149306456	50.72997647704752	-120.16280484905981	175.7295182247707	36.32139345890211
331	1.65	-105.68147317491285	539.5508270966607	300.2601757618749	-251.99172525814413	389.28458040265593	50.69497790004497	-119.88304059596655	175.5804372349961	36.03558644647471
332	1.655	-105.63221306953413	539.368507731538	300.2328722640459	-251.93666967694037	389.1607226352638	50.658754702855674	-119.60442114839933	175.43985017120968	35.768868997088774
333	1.66	-105.58644341419557	539.1918845506049	300.2063061000137	-251.88563701929473	389.04298811304545	50.62129090003607	-119.32692166283674	175.3084486736958	35.522719656590866
334	1.665	-105.54414866265712	539.0210912900285	300.18055903607586	-251.83876984365062	388.93172352608394	50.5825738393521	-119.05051594543534	175.18693703918973	35.29863689300262
335	1.67	-105.50531318927044	538.856267351637	300.1557135843214	-251.79620522013641	388.8272747518976	50.54259451662209	-118.77517654487272	175.07603083498827	35.0981357023969
336	1.675	-105.46992127915473	538.6975575466121	300.13185285492074	-251.75807404290163	388.7299858223559	50.50134789644483	-118.50087487050479	174.97645546907052	34.922744098837256
337	1.68	-105.43795711299101	538.5451118234342	300.109060407512	-251.724500352714	388.64019787811526	50.45883323750289	-118.22758133468727	174.8889447185124	34.77399949802702
338	1.685	-105.40940474648461	538.3990849807425	300.08742010205157	-251.695600672065	388.5582481132433	50.4150544210368	-117.95526551800464	174.8142392187424	34.65344500487325
